<svg xmlns="http://www.w3.org/2000/svg" viewBox="0 0 232 128"><g transform="translate(0 -169)"><rect width="232" height="128" y="169" fill="#4fc3f7" rx="0" ry="0"/><rect width="232" height="30" y="267" fill="#0093c4" ry="0" rx="0"/><path fill="#fff" d="M25.88 200.32H71.7v22.92H25.9z"/><circle cx="25.88" cy="211.77" r="11.46" fill="#fff"/><circle cx="71.72" cy="211.77" r="11.46" fill="#fff"/><circle cx="38.99" cy="202.71" r="19.18" fill="#fff"/><circle cx="58.96" cy="201.36" r="11.83" fill="#fff"/><path fill="#fff" d="M132.06 207.1h67.6v33.8h-67.6z"/><circle cx="132.06" cy="224" r="16.9" fill="#fff"/><circle cx="199.67" cy="224" r="16.9" fill="#fff"/><circle cx="178.5" cy="211.3" r="27.62" fill="#fff"/><circle cx="145.42" cy="208.09" r="18" fill="#fff"/><path fill="#fff" d="M70.9 266.67s-1.82-1.7-5.63-1.45c-3.82.24-8.6 3.47-8.6 3.47s6.44 2.3 10.03 2.12c3.6-.17 8.65-.6 9.03-1.58.4-1 .25-1.78-.57-2.7-.82-.96-2.7-3.55-.78-3.47 1.94.1 4.25.7 4.85.5.6-.23-2.32-1.47-2.32-1.47s-.72-.8-1.1-1.67c-.34-.9-1.72-.83-1.72-.83s-2.05.03-2.9 1.98c-.84 1.97.9 3.08-.23 5.04zm18.93 2.86s1.8-1.7 5.62-1.45c3.8.24 8.6 3.48 8.6 3.48S97.6 273.9 94 273.74c-3.58-.17-8.63-.6-9.02-1.58-.38-1-.24-1.76.58-2.7.82-.94 2.7-3.53.77-3.45-1.93.1-4.24.7-4.85.5-.6-.2 2.32-1.4 2.32-1.4s.8-.8 1.16-1.7c.36-.9 1.73-.8 1.73-.8s2 0 2.9 1.97c.8 1.97-.9 3.08.2 5.03z"/><circle cx="74.94" cy="261.09" r=".24"/><circle cx="-85.76" cy="263.9" r=".24" transform="scale(-1 1)"/></g></svg>