<svg xmlns="http://www.w3.org/2000/svg" viewBox="0 0 232 128"><defs><clipPath id="c"><path fill="#d50000" stroke-width=".26" d="M38.18 193.25c15.1-.24 168.95 0 168.95 0s8.88-.38 11.72 7.18c2.83 7.56 5.62 17.8 7.7 71.58.08 1.37-2.08 1.28-2.08 1.28s-157.3-.24-208.84-.53c-6.92 0-8.8-1.72-8.82-5.58-.05-7.83.32-31.17.67-47.28.32-15.88 15.6-26.42 30.7-26.65z"/></clipPath><clipPath id="b"><path fill="#d50000" stroke-width=".26" d="M38.18 193.25c15.1-.24 168.95 0 168.95 0s8.88-.38 11.72 7.18c2.83 7.56 5.62 17.8 7.7 71.58.08 1.37-2.08 1.28-2.08 1.28s-157.3-.24-208.84-.53c-6.92 0-8.8-1.72-8.82-5.58-.05-7.83.32-31.17.67-47.28.32-15.88 15.6-26.42 30.7-26.65z"/></clipPath><clipPath id="a"><path fill="#d50000" stroke-width=".26" d="M38.18 193.25c15.1-.24 168.95 0 168.95 0s8.88-.38 11.72 7.18c2.83 7.56 5.62 17.8 7.7 71.58.08 1.37-2.08 1.28-2.08 1.28s-157.3-.24-208.84-.53c-6.92 0-8.8-1.72-8.82-5.58-.05-7.83.32-31.17.67-47.28.32-15.88 15.6-26.42 30.7-26.65z"/></clipPath></defs><g transform="translate(0 -169)"><rect width="232" height="128" y="169" fill="#88c399" rx="0" ry="0"/><rect width="232" height="30" y="267" fill="#b9f6ca" ry="0" rx="0"/><path fill="#d50000" d="M34.74 207.87c13.47-.2 150.46 0 150.46 0s7.9-.34 10.44 6.4c2.52 6.73 5 15.86 6.86 63.74.06 1.22-1.86 1.14-1.86 1.14s-140.07-.2-185.98-.47c-6.16 0-7.82-1.53-7.85-4.97-.04-6.97.28-27.76.6-42.1.28-14.14 13.88-23.52 27.34-23.73z"/><g stroke-width="1.12" transform="matrix(.89054 0 0 .89054 .745 35.777)"><circle cx="57" cy="268.5" r="10" fill="#333"/><circle cx="57" cy="268.5" r="5.73" fill="gray"/></g><g stroke-width="1.12" transform="matrix(.89054 0 0 .89054 105.828 35.777)"><circle cx="57" cy="268.5" r="10" fill="#333"/><circle cx="57" cy="268.5" r="5.73" fill="gray"/></g><path fill="#1a1a1a" d="M41.1 234.92v16.72h110.56s5.8.05 10.2-3.6c6.82-5.62 26.98-28.72 26.98-28.72-.3.02 3.9-5.2 7.1-5.16 10.53-.8 30.18-.2 30.18-.2l-4.53-12.46s-21.77-.13-32.5-.13c0 0-2.78-.4-7.76 3.86-5.28 4.5-23.15 25.25-23.15 25.25s-3.75 4.92-8.46 5.02c-4.7.1-108.64-.58-108.64-.58z" clip-path="url(#a)" transform="matrix(.89054 0 0 .89054 .745 35.777)"/><path fill="#1a1a1a" d="M167.66 199.9l-13.07 13.57H15.7c-.5.04-8.2-.55-9.1 16.9-.66 13.34-2.73-13.6-2.73-13.6s7.2-15.96 19.75-16.44c12.57-.47 144.04-.43 144.04-.43z" clip-path="url(#b)" transform="matrix(.89054 0 0 .89054 .745 35.777)"/><path fill="#1a1a1a" d="M182.28 252.97h46.17v-20.45h-28.33z" clip-path="url(#c)" transform="matrix(.89054 0 0 .89054 .745 35.777)"/><path fill="#fff" stroke="#000" stroke-width=".25" stroke-dashoffset="2.27" d="M214.78 231.28h5.85v4.6h-5.85z" stroke-linecap="round"/><path fill="#d50000" stroke="#000" stroke-width=".25" stroke-dashoffset="2.27" d="M214.78 235.74h5.85v.7h-5.85z" stroke-linecap="round"/><path fill="#b3b3b3" stroke="#000" stroke-width=".25" stroke-dashoffset="2.27" d="M214.78 236.4h5.85v.95h-5.85z" stroke-linecap="round"/><path fill="#fff" stroke="#000" stroke-width=".25" stroke-dashoffset="2.27" d="M214.78 237.3h5.85v4.3h-5.85z" stroke-linecap="round"/><path fill="#4d4d4d" stroke="#000" d="M214.65 271.3v-43.56"/><circle cx="214.65" cy="227.74" r="2.24" fill="#d50000"/><text x="213.57" y="228.75" fill="#fff" stroke-width=".26" style="line-height:1.25;-inkscape-font-specification:'sans-serif, Bold';font-variant-ligatures:normal;font-variant-caps:normal;font-variant-numeric:normal;font-feature-settings:normal;text-align:start" font-weight="bold" font-size="2.86" font-family="sans-serif" letter-spacing="0" word-spacing="0"><tspan x="213.57" y="228.75" style="-inkscape-font-specification:'sans-serif, Bold';font-variant-ligatures:normal;font-variant-caps:normal;font-variant-numeric:normal;font-feature-settings:normal;text-align:start">D</tspan></text><circle cx="217.76" cy="233.49" r="1.25" fill="none" stroke="#d50000" stroke-width=".5" stroke-dashoffset="2.27" stroke-linecap="round"/><path fill="#d50000" d="M215.82 233.27h3.9v.56h-3.9z"/><path fill="none" stroke="#000" stroke-width=".26" d="M216.87 237.35v4.16M218.74 237.38v4.18M220.6 238.77h-5.53M214.95 240.2h5.55M215.85 237.68v.65"/><path fill="none" stroke="#000" stroke-width=".6" d="M217.77 237.68v.65"/><path fill="none" stroke="#000" stroke-width=".1" d="M220 238h-.65"/><path fill="none" stroke="#000" stroke-width=".25" d="M219.67 239.12v.65"/><path fill="none" stroke="#000" stroke-width=".4" d="M217.5 239.44h.65"/><path fill="none" stroke="#000" stroke-width=".1" d="M216.2 239.44h-.63"/><path fill="none" stroke="#000" stroke-width=".5" d="M215.9 240.55v.64"/><path fill="none" stroke="#000" stroke-width=".3" d="M217.8 240.55v.64"/></g></svg>