<svg xmlns="http://www.w3.org/2000/svg" viewBox="0 0 232 128"><defs><clipPath id="a"><rect width="52.82" height="21.23" x="44.43" y="227.29" fill="#d50000" stroke-width=".27" ry="4.46" rx="4.46"/></clipPath><clipPath id="b"><rect width="52.82" height="21.23" x="44.43" y="227.29" fill="#d50000" stroke-width=".27" ry="4.46" rx="4.46"/></clipPath></defs><g transform="matrix(3.77973 0 0 3.77916 -159.39 -833.568)"><rect width="61.38" height="33.87" x="42.17" y="220.57" fill="#7ecb20" rx="0" ry="0"/><rect width="61.38" height="7.94" x="42.17" y="246.49" fill="#b2ff59" ry="0" rx="0"/><path fill="#fff" stroke="#000" stroke-width=".07" stroke-dashoffset="2.27" d="M99.84 233.1h2.27v1.8h-2.2z" stroke-linecap="round"/><path fill="#d50000" stroke="#000" stroke-width=".07" stroke-dashoffset="2.27" d="M99.84 234.83h2.27v.28h-2.2z" stroke-linecap="round"/><path fill="#b3b3b3" stroke="#000" stroke-width=".07" stroke-dashoffset="2.27" d="M99.84 235.1h2.27v.36h-2.2z" stroke-linecap="round"/><path fill="#fff" stroke="#000" stroke-width=".07" stroke-dashoffset="2.27" d="M99.84 235.44h2.27v1.68h-2.2z" stroke-linecap="round"/><path fill="#4d4d4d" stroke="#000" stroke-width=".4" d="M99.78 248.7v-17"/><circle cx="99.78" cy="231.72" r=".87" fill="#d50000"/><text x="99.36" y="232.11" fill="#fff" stroke-width=".07" style="line-height:1.25;-inkscape-font-specification:'sans-serif, Bold';font-variant-ligatures:normal;font-variant-caps:normal;font-variant-numeric:normal;font-feature-settings:normal;text-align:start" font-weight="bold" font-size="1.11" letter-spacing="0" word-spacing="0" font-family="sans-serif"><tspan x="99.36" y="232.11" style="-inkscape-font-specification:'sans-serif, Bold';font-variant-ligatures:normal;font-variant-caps:normal;font-variant-numeric:normal;font-feature-settings:normal;text-align:start">D</tspan></text><circle cx="101" cy="233.96" r=".49" fill="none" stroke="#d50000" stroke-width=".2" stroke-dashoffset="2.27" stroke-linecap="round"/><path fill="none" stroke="#000" stroke-width=".07" d="M100.65 235.46v1.62m.73-1.6v1.62m.72-1.08h-2.15m-.05.55h2.17m-1.82-.98v.2"/><path fill="none" stroke="#000" stroke-width=".16" d="M101 235.6v.24"/><path fill="none" stroke="#000" stroke-width=".03" d="M101.87 235.72h-.25"/><path fill="none" stroke="#000" stroke-width=".07" d="M101.74 236.15v.25"/><path fill="none" stroke="#000" stroke-width=".11" d="M100.9 236.28h.25"/><path fill="none" stroke="#000" stroke-width=".03" d="M100.4 236.28h-.26"/><path fill="none" stroke="#000" stroke-width=".13" d="M100.27 236.7v.26"/><path fill="none" stroke="#000" stroke-width=".08" d="M101 236.7v.26"/><path fill="none" stroke="#d50000" stroke-width=".2" d="M100.27 233.98h1.45"/><rect width="52.82" height="21.23" x="44.43" y="227.29" fill="#d50000" rx="4.46" ry="4.46"/><rect width="52.82" height="12.18" x="44.43" y="236.34" fill="#d50000" ry="1.65" rx="1.65"/><rect width="52.82" height="12.18" x="44.43" y="236.34" fill="#d50000" rx="1.65" ry="1.65"/><path fill="#025" d="M48.4 230.14h49.2c.78 0 1.4.63 1.4 1.4v2.8c0 .8-.62 1.4-1.4 1.4H48.4c-.78 0-1.4-.6-1.4-1.4v-2.8c0-.77.62-1.4 1.4-1.4z" clip-path="url(#a)"/><path fill="#025" d="M52.1 238.08h45.44c.78 0 1.4.63 1.4 1.4v2.8c0 .78-.62 1.4-1.4 1.4H52.1c-.77 0-1.4-.62-1.4-1.4v-2.8c0-.77.63-1.4 1.4-1.4z" clip-path="url(#b)"/><g stroke-width="1.03" transform="translate(40.97 179.37) scale(.25532)"><circle cx="57" cy="268.5" r="10" fill="#333"/><circle cx="57" cy="268.5" r="5.73" fill="gray"/></g><g stroke-width="1.03" transform="translate(71.098 179.37) scale(.25532)"><circle cx="57" cy="268.5" r="10" fill="#333"/><circle cx="57" cy="268.5" r="5.73" fill="gray"/></g></g></svg>