<svg xmlns="http://www.w3.org/2000/svg" viewBox="0 0 232 128"><defs><clipPath id="b"/><clipPath id="a"/><clipPath id="g"><path fill="#e6e6e6" d="M201.3-76.02c-3.56 2.38-9.14 2.9-15.18 3.02H34.14l-15.4-4.27c-2.5-4.04-2.2-7.78-2.3-11.55l2.1-3.23 1.65-11.14c.1 0 .2-3.9-.4-4.5-.4-.6 9.6-2.2 10.9-2.1 1.3.1 33.6-13.6 66.8-13.1 31.4.5 50.3 15.4 55.6 17-.2.4 43 5.9 47.52 13.9 4.57 7.97-1.55 10.8-.54 11.06 0 1.84.33 3.54 1.03 5.1z"/></clipPath><clipPath id="f"><path fill="#e6e6e6" d="M201.3-76.02c-3.56 2.38-9.14 2.9-15.18 3.02H34.14l-15.4-4.27c-2.5-4.04-2.2-7.78-2.3-11.55l2.1-3.23 1.65-11.14c.1 0 .2-3.9-.4-4.5-.4-.6 9.6-2.2 10.9-2.1 1.3.1 33.6-13.6 66.8-13.1 31.4.5 50.3 15.4 55.6 17-.2.4 43 5.9 47.52 13.9 4.57 7.97-1.55 10.8-.54 11.06 0 1.84.33 3.54 1.03 5.1z"/></clipPath><clipPath id="e"><path fill="#e6e6e6" d="M201.3-76.02c-3.56 2.38-9.14 2.9-15.18 3.02H34.14l-15.4-4.27c-2.5-4.04-2.2-7.78-2.3-11.55l2.1-3.23 1.65-11.14c.1 0 .2-3.9-.4-4.5-.4-.6 9.6-2.2 10.9-2.1 1.3.1 33.6-13.6 66.8-13.1 31.4.5 50.3 15.4 55.6 17-.2.4 43 5.9 47.52 13.9 4.57 7.97-1.55 10.8-.54 11.06 0 1.84.33 3.54 1.03 5.1z"/></clipPath><clipPath id="d"><path fill="#e6e6e6" d="M201.3-76.02c-3.56 2.38-9.14 2.9-15.18 3.02H34.14l-15.4-4.27c-2.5-4.04-2.2-7.78-2.3-11.55l2.1-3.23 1.65-11.14c.1 0 .2-3.9-.4-4.5-.4-.6 9.6-2.2 10.9-2.1 1.3.1 33.6-13.6 66.8-13.1 31.4.5 50.3 15.4 55.6 17-.2.4 43 5.9 47.52 13.9 4.57 7.97-1.55 10.8-.54 11.06 0 1.84.33 3.54 1.03 5.1z"/></clipPath><clipPath id="c"><path fill="#e6e6e6" d="M201.3-76.02c-3.56 2.38-9.14 2.9-15.18 3.02H34.14l-15.4-4.27c-2.5-4.04-2.2-7.78-2.3-11.55l2.1-3.23 1.65-11.14c.1 0 .2-3.9-.4-4.5-.4-.6 9.6-2.2 10.9-2.1 1.3.1 33.6-13.6 66.8-13.1 31.4.5 50.3 15.4 55.6 17-.2.4 43 5.9 47.52 13.9 4.57 7.97-1.55 10.8-.54 11.06 0 1.84.33 3.54 1.03 5.1z"/></clipPath></defs><rect width="232" height="128" y=".07" fill="#519657" ry="0" rx="0"/><rect width="232" height="30" y="98.07" fill="#81c784" ry="0" rx="0"/><rect width="8.22" height="5.62" x="60.62" y="247.67" fill="#d50000" transform="matrix(1.3 0 0 1.3 -54 -231.8)" clip-path="url(#a)" rx="1.26" ry="1.26"/><rect width="8.22" height="5.62" x="157.85" y="250.6" fill="#fff" transform="matrix(1.3 0 0 1.3 -54 -231.8)" clip-path="url(#b)" ry="1.26" rx="1.26"/><rect width="8.22" height="5.62" x="60.62" y="247.67" fill="#d50000" ry="1.26" rx="1.26" clip-path="url(#a)" transform="matrix(1.3 0 0 1.3 99.5 -231.8)"/><rect width="22.68" height="57.8" x="12.91" y="53.81" fill="#333" rx="2.96" ry="1.82"/><path fill="none" stroke="#546e7a" stroke-width="5" d="M19.87 63.1c-1.25-.13 1.98 47.8-9.82 48.94-9.48.9-13.9-8.18-8.36-9.2 18.3-3.45-3.3 28.1-21.1-11"/><path fill="#323232" d="M271.2 105.68c-4.3 2.85-11 3.5-18.26 3.62H70.54l-18.5-5.12c-3-4.85-2.65-9.33-2.75-13.87l2.5-3.8 2-13.3c.1 0 .2-4.7-.4-5.5-.5-.7 11.5-2.6 13.1-2.5 1.6.18 40.3-16.3 80.2-15.7 37.7.6 60.3 18.5 66.7 20.38-.2.4 51.6 7.1 57.1 16.6 5.5 9.56-1.9 12.98-.6 13.27 0 2.2.4 4.23 1.2 6.1z"/><path fill="red" d="M15.87-98.66c5.14.1 10.27.3 15.4 0 0 0 1.88 0 2.46-.83.57-.8-6.46-5.1-9.53-5.1-3.07 0-8.33 6-8.33 6z" clip-path="url(#c)" transform="matrix(1.2 0 0 1.2 29.5 196.9)"/><path fill="none" stroke="#546e7a" stroke-width="5" d="M29.06 63.06c0 13.6.2 41.68 13.28 40.3 22.45-2.4 24.97-26.66 40.7-27.96"/><path fill="#fff" d="M182.57-97.38s14.2-.62 16.8.4c2.56 1.04-.86 5.35-.86 5.35l-3.4-.67-.6.8s-3.3-.7-4.6-1.3c-1.3-.64-7.2-4.58-7.2-4.58z" clip-path="url(#d)" transform="matrix(1.2 0 0 1.2 29.5 196.9)"/><circle cx="234.53" cy="100.37" r="17.06" fill="#333"/><circle cx="234.53" cy="100.37" r="13.5" fill="#b3b3b3"/><circle cx="94.16" cy="100.37" r="17.06" fill="#333"/><circle cx="94.16" cy="100.37" r="13.5" fill="#b3b3b3"/><path fill="#666" d="M166.45 77.04l-1.5-1.22s.35-.16-1-.28c-1.34-.13-8.3-.72-8.3-.72s.5 1.28 1.53 1.56 9.27.66 9.27.66zm-48.6-2.64l-1.5-1.2s.34-.16-1-.3c-1.34-.1-8.3-.7-8.3-.7s.5 1.28 1.52 1.56c1.03.28 9.28.65 9.28.65z"/><path fill="none" stroke="#000" stroke-opacity=".12" stroke-width=".42" d="M63.3-109.38s-2.15 2.3-4.28 2.86c-3.18 1.62 26.64 36.55 26.7 36.5" clip-path="url(#e)" transform="matrix(1.2 0 0 1.2 29.5 196.9)"/><path fill="none" stroke="#000" stroke-opacity=".12" stroke-width=".42" d="M100.3-105.95s1.3 4.27 1.24 6.87l-.47 28.32" clip-path="url(#f)" transform="matrix(1.2 0 0 1.2 29.5 196.9)"/><path fill="none" stroke="#000" stroke-opacity=".12" stroke-width=".42" d="M140.35-104.8c6.48 3.14 5 14.76 4.86 18.16-.5 10.67-1.4 16.94-1.4 16.94" clip-path="url(#g)" transform="matrix(1.2 0 0 1.2 35.5 196.9)"/><path fill="#78909c" d="M24.87 65.97l8.35-.1s.62-8.05-4.18-8.06c-5.07 0-4.17 8.2-4.17 8.2zm-1.33 0l-8.34-.1s-.62-8.05 4.18-8.06c5.07 0 4.16 8.2 4.16 8.2z"/><circle cx="83.16" cy="75.61" r="4.49" fill="#78909c"/><path fill="#325d36" d="M205.7 71.96s-85.33-1.4-100.53-5.43c-15.2-4.02-13.3-5.34-13.3-5.34S162.1 36.6 205.7 71.9z"/></svg>