<svg xmlns="http://www.w3.org/2000/svg" viewBox="0 0 232 128" version="1.1"><defs><clipPath id="b"/><clipPath id="a"/></defs><g transform="translate(0 -169)"><rect width="232" height="128" x="0" y="169.07" fill="#66bb6a" fill-opacity="1" rx="0" ry="0"/><rect width="232" height="30" x="43.3" y="425.64" fill="#98ee99" fill-opacity="1" rx="0" ry="0" transform="translate(-43.303 -158.57)"/><path fill="#ffb74d" fill-opacity="1" d="M26.97 254.4c.37-3.08.9-4.65 6.06-5.4l4.73-.66 19.53-8.8c4-1.8 8.4-2.6 12.9-2.53l21.9.4c3.5.1 7 1.1 10.1 2.78l19.2 10.4 26.6 4.1c2.9.6 3.8 2.1 5.9 4.23l.25.27c2.2 2.16 3.02 6.95 2.22 9.93l-.6 2.15c-.4 1.48-1.6 2.6-3.1 2.87-10.63 0-88.9-.04-120.05-.04-3.76 0-5.97-1.05-5.97-5.65"/><g stroke-width=".78" transform="translate(-22.982 -70.186) scale(1.275)"><circle cx="57.63" cy="267.82" r="10" fill="#333"/><circle cx="57.63" cy="267.82" r="5.73" fill="gray"/></g><g stroke-width=".78" transform="translate(51.11 -70.186) scale(1.275)"><circle cx="57.63" cy="267.82" r="10" fill="#333"/><circle cx="57.63" cy="267.82" r="5.73" fill="gray"/></g><path fill="#1a1a1a" d="M41.42 249.5l17.9-8.44c3.6-1.6 7.5-2.3 11.4-2.24l21.4.3c3.12.1 6.18.93 8.93 2.4l17.6 9.88"/><rect width="8.22" height="5.62" x="60.62" y="247.67" fill="#d50000" ry="1.26" rx="1.26" clip-path="url(#a)" transform="translate(-54.046 -62.774) scale(1.275)"/><rect width="8.22" height="5.62" x="157.85" y="250.6" fill="#fff" rx="1.26" ry="1.26" clip-path="url(#b)" transform="translate(-54.046 -62.774) scale(1.275)"/><path fill="#673ab7" d="M180.56 254.4c.37-3.08.9-4.65 6.07-5.4l4.72-.66 19.53-8.8c4.05-1.8 8.46-2.6 12.9-2.53l21.94.4c10.7-.7 82.14 36 60.62 36.7H186.3c-3.7 0-5.9-1.02-5.9-5.62"/><g stroke-width=".78" transform="translate(130.608 -70.186) scale(1.275)"><circle cx="57.63" cy="267.82" r="10" fill="#333"/><circle cx="57.63" cy="267.82" r="5.73" fill="gray"/></g><path fill="#1a1a1a" d="M195 249.5l17.92-8.44c3.58-1.6 7.48-2.3 11.4-2.24l21.4.3c9.56 1 17.9 7.45 26.52 12.28"/><rect width="8.22" height="5.62" x="60.62" y="247.67" fill="#d50000" transform="translate(99.544 -62.774) scale(1.275)" clip-path="url(#a)" rx="1.26" ry="1.26"/><rect width="11.27" height="46.76" x="7.38" y="242.48" fill="#333" ry="1.47" rx="1.47"/><rect width="29.6" height="7.36" x="25.22" y="175.53" fill="#333" ry="1.47" rx="1.47"/><rect width="29.6" height="2.93" x="25.22" y="179.96" fill="#fff" rx="1.47" ry="1.47"/><path fill="none" stroke="#333" stroke-width="3" stroke-miterlimit="4" d="M12.9 244.5v-52.26c0-12.28 5.87-14.35 13.47-14.48"/><path fill="none" stroke="#546e7a" stroke-width="2.5" stroke-miterlimit="4" d="M12.58 249.53c.44 0-1.68 31 8.9 31 13.28 0 2.27-26.27 19.26-26.27"/><path fill="#78909c" fill-opacity="1" d="M9.76 251.84l6.6-.07s.5-6.52-3.38-6.53c-4.1 0-3.22 6.6-3.22 6.6z"/><circle cx="41.81" cy="254.06" r="2.54" fill="#78909c" fill-opacity="1"/></g></svg>