<svg xmlns="http://www.w3.org/2000/svg" viewBox="0 0 232 128"><defs><clipPath id="b"/><clipPath id="a"/></defs><g transform="translate(0 -169)"><rect width="232" height="128" y="169" fill="#725b53" rx="0" ry="0"/><rect width="232" height="30" x="43.3" y="425.64" fill="#a1887f" rx="0" ry="0" transform="translate(-43.3 -158.6)"/><path fill="#8e8e8e" d="M-8.73 242.476c3.737-1.68 7.847-2.428 12.05-2.363l20.454.374c3.27.093 6.54.99 9.434 2.56l17.933 9.713 24.847 3.83c2.736.56 3.55 1.96 5.538 3.95l.243.252c2.055 2.018 2.82 6.49 2.074 9.275l-.56 2.027c-.373 1.382-1.494 2.428-2.895 2.68-9.92 0-83.034-.037-112.12-.037"/><g stroke-width=".835" transform="matrix(1.2 0 0 1.2 -14.5 -46.8)"><circle cx="57.63" cy="267.82" r="10" fill="#333"/><circle cx="57.63" cy="267.82" r="5.73" fill="gray"/></g><path fill="#1a1a1a" d="M-23.552 251.78l16.72-7.884c3.36-1.495 7.004-2.148 10.647-2.092l19.987.28c2.915.093 5.773.868 8.34 2.24l16.44 9.23"/><rect width="8.22" height="5.62" x="60.62" y="247.67" fill="#d50000" ry="1.26" rx="1.26" clip-path="url(#a)" transform="matrix(1.3 0 0 1.3 -58 -62.8)"/><rect width="8.22" height="5.62" x="157.85" y="250.6" fill="#fff" rx="1.26" ry="1.26" clip-path="url(#b)" transform="matrix(1.3 0 0 1.3 -58 -62.8)"/><rect width="8.22" height="5.62" x="60.62" y="247.67" fill="#d50000" transform="matrix(1.3 0 0 1.3 95.5 -62.8)" clip-path="url(#a)" rx="1.26" ry="1.26"/><path fill="#333" d="M111.072 264.365h10.91v7.138h-10.91z"/><path fill="#373737" d="M118.394 256.356c.345-2.877.84-4.344 5.66-5.044l4.418-.617 18.24-8.22c3.737-1.68 7.847-2.427 12.05-2.362l20.455.374c3.27.093 6.538.99 9.433 2.56l17.933 9.713 24.845 3.83c6.927.193 12.103 16.62 4.4 18.184-9.92 0-83.035-.037-112.12-.037-3.512 0-5.576-.972-5.576-5.268"/><g stroke-width=".835" transform="matrix(1.2 0 0 1.2 71.7 -46.8)"><circle cx="57.63" cy="267.82" r="10" fill="#333"/><circle cx="57.63" cy="267.82" r="5.73" fill="gray"/></g><g stroke-width=".835" transform="matrix(1.2 0 0 1.2 140.9 -46.8)"><circle cx="57.63" cy="267.82" r="10" fill="#333"/><circle cx="57.63" cy="267.82" r="5.73" fill="gray"/></g><path fill="#1a1a1a" d="M131.89 251.78l16.72-7.884c3.36-1.495 7.004-2.148 10.647-2.092l19.988.28c2.914.093 5.772.868 8.34 2.24l16.44 9.23"/><g fill="#40241a" transform="rotate(35.1 -1.2 7.6)"><circle cx="161.433" cy="134.745" r="11.46"/><circle cx="207.273" cy="134.745" r="11.46"/><circle cx="174.543" cy="125.685" r="19.18"/><circle cx="194.513" cy="124.335" r="11.83"/><circle cx="176.137" cy="142.251" r="15.745"/><circle cx="197.295" cy="143.028" r="12.414"/><circle cx="211.399" cy="146.982" r="11.998"/><circle cx="223.904" cy="152.824" r="9.708"/><circle cx="232.992" cy="155.978" r="7.314"/><circle cx="240.495" cy="155.793" r="3.67"/></g></g></svg>