<svg xmlns="http://www.w3.org/2000/svg" viewBox="0 0 232 128"><g transform="translate(0 -169)"><rect width="232" height="128" y="169" fill="#4bacb8" rx="0" ry="0"/><circle cx="57.79" cy="237.89" r="48.11" fill="#00363a"/><path fill="#666" d="M25.97 259.5l1.42 7.62c20.36 1.27 40.73 1.62 61.1 0l2.07-8.14z"/><path fill="#ba000d" d="M58.32 264.27s-27.73.6-33.12-5.28c-8.76-9.55-2.13-41.3 1.46-48.07 7.92-14.96 31.78-13.78 31.78-13.78"/><path fill="#ba000d" d="M58.22 264.27s27.73.6 33.12-5.28c8.76-9.55 2.13-41.3-1.46-48.07-7.92-14.96-31.78-13.78-31.78-13.78"/><g fill="#37474f" stroke-width="2.86"><path d="M58.3 245.25s-24.38.4-29.13-3.5c-7.7-6.3-1.87-27.3 1.28-31.77 6.98-9.9 27.97-9.12 27.97-9.12"/><path d="M58.23 245.25s24.4.4 29.14-3.5c7.7-6.3 1.87-27.3-1.28-31.77-7-9.9-27.98-9.12-27.98-9.12"/></g><path fill="#90a4ae" d="M48.88 207.58c-1.38-6.3-12.3-.56-15.94 3.48-4.2 4.66-6.93 18.7-2.06 18.7h15.96c4.08 0 3.62-14.94 2.04-22.18zM67.46 207.58c1.38-6.3 12.3-.56 15.94 3.48 4.2 4.66 6.93 18.7 2.06 18.7H69.5c-4.08 0-3.62-14.94-2.04-22.18z"/><rect width="9.51" height="17.93" x="53.52" y="205.1" fill="#90a4ae" ry="5.2" rx="5.2"/><circle cx="32.93" cy="252.24" r="6.25" fill="#fff"/><circle cx="83.28" cy="252.24" r="6.25" fill="#fff"/><circle cx="174.21" cy="237.89" r="48.11" fill="#00363a"/><rect width="232" height="30" y="267" fill="#80deea" ry="0" rx="0"/><path fill="none" stroke="#e0f7fa" stroke-width="10" d="M148.1 234.07l15.5 15.5 33.9-33.93"/></g></svg>