<svg xmlns="http://www.w3.org/2000/svg" viewBox="0 0 232 128"><defs><clipPath id="b"><path fill="#eceff1" d="M122.87 234.1s12.46 2.9 18.03 5.8c2.5 1.17 6.23 2.92 7.06 5 .66 1.82 1.66 6.97.83 9.3-.7 2.32-1.7 2.5-1.7 2.5s-.34.15-2.9.48c-2.67.34-99 1.25-99 1.25s-9.48 0-10.4-2.33c-.83-2.5-.4-8.63-.4-8.63l2.3-3.74 1.43-8.22-.83-2.95s23.93-8.64 43.86-9.14c19.93-.25 32.4 7.97 41.7 10.8z"/></clipPath><clipPath id="a"><path fill="#eceff1" d="M122.87 234.1s12.46 2.9 18.03 5.8c2.5 1.17 6.23 2.92 7.06 5 .66 1.82 1.66 6.97.83 9.3-.7 2.32-1.7 2.5-1.7 2.5s-.34.15-2.9.48c-2.67.34-99 1.25-99 1.25s-9.48 0-10.4-2.33c-.83-2.5-.4-8.63-.4-8.63l2.3-3.74 1.43-8.22-.83-2.95s23.93-8.64 43.86-9.14c19.93-.25 32.4 7.97 41.7 10.8z"/></clipPath></defs><g transform="translate(0 -169)"><rect width="232" height="128" y="169" fill="#34515e" rx="0" ry="0"/><rect width="232" height="30" x="43.3" y="425.6" fill="#607d8b" rx="0" ry="0" transform="translate(-43.303 -158.57)"/><path fill="#004b9d" d="M125 242.3s15 3.5 21.7 7c3 1.4 7.5 3.5 8.5 6 .8 2.2 2 8.4 1 11.2-.8 2.8-2 3-2 3s-.4.2-3.5.6c-3.2.4-119.2 1.5-119.2 1.5s-11.4 0-12.5-2.8c-1-3-.5-10.4-.5-10.4l2.8-4.5L23 244l-1-3.6s28.8-10.4 52.8-11c24-.3 39 9.6 50.2 13z"/><path fill-opacity=".63" d="M125.4 248l-80.7-4.7-3.4-4.7s11.8-7 37-6.6c25 .3 47.5 15 47.5 15z"/><path fill="#d50000" d="M34.3 245.3l2.5-1.7L43 236l-4.7-3.3-5.2.6z" clip-path="url(#a)" transform="translate(-22.94 -39.55) scale(1.204)"/><path fill="#fff" d="M134 240l6.4 3.5 10.3 2.4-5.4-6.6z" clip-path="url(#b)" transform="translate(-22.94 -39.55) scale(1.204)"/><circle cx="45.5" cy="267.9" r="12.3" fill="#333"/><circle cx="45.5" cy="267.9" r="8.4" fill="gray"/><circle cx="128.3" cy="267.9" r="12.3" fill="#333"/><circle cx="128.3" cy="267.9" r="8.4" fill="gray"/><path fill="none" stroke="#004b9d" stroke-width="5" d="M81.7 246.88s-.1-10.05-2.7-16.32"/></g></svg>